# Blender v2.78 (sub 0) OBJ File: 'fence_1.blend'
# www.blender.org
o Fence_Cube.004
v -0.302378 0.268595 1.089274
v -0.302378 0.622983 1.089274
v -0.302378 0.268595 0.708080
v -0.302378 0.622983 0.708080
v -0.150196 0.268595 1.089274
v -0.150196 0.622983 1.089274
v -0.150196 0.268595 0.708080
v -0.150196 0.622983 0.708080
v -0.302378 0.936392 1.089274
v -0.302378 0.936392 0.708080
v -0.150196 0.936392 0.708080
v -0.150196 0.936392 1.089274
v -0.302378 1.252679 1.089274
v -0.302378 1.252679 0.708080
v -0.150196 1.252679 0.708080
v -0.150196 1.252679 1.089274
v -0.302378 1.610264 1.089274
v -0.302378 1.610264 0.708080
v -0.150196 1.610264 0.708080
v -0.150196 1.610264 1.089274
v -0.302378 1.724793 1.024612
v -0.302378 1.724793 0.772742
v -0.150196 1.724793 0.772742
v -0.150196 1.724793 1.024612
v -0.302378 1.777927 0.937491
v -0.302378 1.777927 0.859863
v -0.150196 1.777927 0.859863
v -0.150196 1.777927 0.937491
v -0.302378 0.002666 0.708080
v -0.302378 0.002666 1.089274
v -0.150196 0.002666 0.708080
v -0.150196 0.002666 1.089274
v -0.302378 0.268595 0.191630
v -0.302378 0.622983 0.191630
v -0.302378 0.268595 -0.189564
v -0.302378 0.622983 -0.189564
v -0.150196 0.268595 0.191630
v -0.150196 0.622983 0.191630
v -0.150196 0.268595 -0.189564
v -0.150196 0.622983 -0.189564
v -0.302378 0.936392 0.191630
v -0.302378 0.936392 -0.189564
v -0.150196 0.936392 -0.189564
v -0.150196 0.936392 0.191630
v -0.302378 1.252679 0.191630
v -0.302378 1.252679 -0.189564
v -0.150196 1.252679 -0.189564
v -0.150196 1.252679 0.191630
v -0.302378 1.610264 0.191630
v -0.302378 1.610264 -0.189564
v -0.150196 1.610264 -0.189564
v -0.150196 1.610264 0.191630
v -0.302378 1.724793 0.126968
v -0.302378 1.724793 -0.124902
v -0.150196 1.724793 -0.124902
v -0.150196 1.724793 0.126968
v -0.302378 1.777927 0.039847
v -0.302378 1.777927 -0.037781
v -0.150196 1.777927 -0.037781
v -0.150196 1.777927 0.039847
v -0.302378 0.002666 -0.189564
v -0.302378 0.002666 0.191630
v -0.150196 0.002666 -0.189564
v -0.150196 0.002666 0.191630
v -0.302378 0.268595 -0.693346
v -0.302378 0.622983 -0.693346
v -0.302378 0.268595 -1.074540
v -0.302378 0.622983 -1.074539
v -0.150196 0.268595 -0.693346
v -0.150196 0.622983 -0.693346
v -0.150196 0.268595 -1.074540
v -0.150196 0.622983 -1.074539
v -0.302378 0.936392 -0.693346
v -0.302378 0.936392 -1.074540
v -0.150196 0.936392 -1.074540
v -0.150196 0.936392 -0.693346
v -0.302378 1.252679 -0.693346
v -0.302378 1.252679 -1.074540
v -0.150196 1.252679 -1.074540
v -0.150196 1.252679 -0.693346
v -0.302378 1.610264 -0.693346
v -0.302378 1.610265 -1.074540
v -0.150196 1.610265 -1.074540
v -0.150196 1.610264 -0.693346
v -0.302378 1.724793 -0.758008
v -0.302378 1.724793 -1.009877
v -0.150196 1.724793 -1.009877
v -0.150196 1.724793 -0.758008
v -0.302378 1.777927 -0.845129
v -0.302378 1.777927 -0.922756
v -0.150196 1.777927 -0.922756
v -0.150196 1.777927 -0.845129
v -0.302378 0.002666 -1.074540
v -0.302378 0.002666 -0.693346
v -0.150196 0.002666 -1.074540
v -0.150196 0.002666 -0.693346
v -0.269476 1.039103 0.221147
v -0.269476 1.075865 -0.042143
v -0.269476 0.661572 0.168434
v -0.269476 0.698333 -0.094855
v -0.184705 1.039103 0.221147
v -0.184705 1.075865 -0.042143
v -0.184705 0.661572 0.168434
v -0.184705 0.698333 -0.094855
v -0.269476 1.108376 -0.274988
v -0.269476 0.730844 -0.327700
v -0.184705 0.730844 -0.327700
v -0.184705 1.108376 -0.274988
v -0.269476 1.141186 -0.509971
v -0.269476 0.763654 -0.562684
v -0.184705 0.763654 -0.562684
v -0.184705 1.141186 -0.509971
v -0.269476 1.178279 -0.775636
v -0.269476 0.800748 -0.828349
v -0.184705 0.800748 -0.828349
v -0.184705 1.178279 -0.775636
v -0.269476 0.633986 0.366004
v -0.269476 1.011518 0.418717
v -0.184705 0.633986 0.366004
v -0.184705 1.011518 0.418717
v -0.269476 0.606890 0.560064
v -0.269476 0.984422 0.612777
v -0.184705 0.606890 0.560064
v -0.184705 0.984422 0.612777
v -0.269476 0.578861 0.760809
v -0.269476 0.956393 0.813522
v -0.184705 0.578861 0.760809
v -0.184705 0.956393 0.813522
v -0.269476 0.553274 0.944063
v -0.269476 0.930806 0.996776
v -0.184705 0.553274 0.944063
v -0.184705 0.930806 0.996776
v -0.269476 0.531960 1.096720
v -0.269476 0.909491 1.149432
v -0.184705 0.531960 1.096720
v -0.184705 0.909491 1.149432
v -0.269476 0.510372 1.251328
v -0.269476 0.887904 1.304041
v -0.184705 0.510372 1.251328
v -0.184705 0.887904 1.304041
v -0.269476 1.201628 -0.942860
v -0.269476 0.824096 -0.995573
v -0.184705 0.824096 -0.995573
v -0.184705 1.201628 -0.942860
v -0.269476 1.222408 -1.091691
v -0.269476 0.844877 -1.144404
v -0.184705 0.844877 -1.144404
v -0.184705 1.222408 -1.091691
v -0.269476 1.240207 -1.219163
v -0.269476 0.862675 -1.271875
v -0.184705 0.862675 -1.271875
v -0.184705 1.240207 -1.219163
vn -1.0000 0.0000 0.0000
vn 0.0000 0.0000 -1.0000
vn 1.0000 0.0000 0.0000
vn 0.0000 0.0000 1.0000
vn 0.0000 0.4916 0.8708
vn 0.0000 0.8537 -0.5207
vn 0.0000 0.4916 -0.8708
vn 0.0000 1.0000 0.0000
vn 0.0000 0.8537 0.5207
vn 0.0000 -1.0000 -0.0000
vn 0.0000 -0.9904 -0.1383
vn 0.0000 0.9904 0.1383
vn 0.0000 -0.1383 0.9904
vn 0.0000 0.1383 -0.9904
s off
f 1//1 2//1 4//1 3//1
f 3//2 4//2 8//2 7//2
f 7//3 8//3 6//3 5//3
f 5//4 6//4 2//4 1//4
f 3//2 7//2 31//2 29//2
f 4//1 2//1 9//1 10//1
f 11//2 10//2 14//2 15//2
f 2//4 6//4 12//4 9//4
f 8//2 4//2 10//2 11//2
f 6//3 8//3 11//3 12//3
f 16//3 15//3 19//3 20//3
f 12//3 11//3 15//3 16//3
f 10//1 9//1 13//1 14//1
f 9//4 12//4 16//4 13//4
f 17//5 20//5 24//5 21//5
f 14//1 13//1 17//1 18//1
f 13//4 16//4 20//4 17//4
f 15//2 14//2 18//2 19//2
f 23//6 22//6 26//6 27//6
f 19//7 18//7 22//7 23//7
f 20//3 19//3 23//3 24//3
f 18//1 17//1 21//1 22//1
f 27//8 26//8 25//8 28//8
f 24//3 23//3 27//3 28//3
f 22//1 21//1 25//1 26//1
f 21//9 24//9 28//9 25//9
f 29//10 31//10 32//10 30//10
f 1//1 3//1 29//1 30//1
f 7//3 5//3 32//3 31//3
f 5//4 1//4 30//4 32//4
f 33//1 34//1 36//1 35//1
f 35//2 36//2 40//2 39//2
f 39//3 40//3 38//3 37//3
f 37//4 38//4 34//4 33//4
f 35//2 39//2 63//2 61//2
f 36//1 34//1 41//1 42//1
f 43//2 42//2 46//2 47//2
f 34//4 38//4 44//4 41//4
f 40//2 36//2 42//2 43//2
f 38//3 40//3 43//3 44//3
f 48//3 47//3 51//3 52//3
f 44//3 43//3 47//3 48//3
f 42//1 41//1 45//1 46//1
f 41//4 44//4 48//4 45//4
f 49//5 52//5 56//5 53//5
f 46//1 45//1 49//1 50//1
f 45//4 48//4 52//4 49//4
f 47//2 46//2 50//2 51//2
f 55//6 54//6 58//6 59//6
f 51//7 50//7 54//7 55//7
f 52//3 51//3 55//3 56//3
f 50//1 49//1 53//1 54//1
f 59//8 58//8 57//8 60//8
f 56//3 55//3 59//3 60//3
f 54//1 53//1 57//1 58//1
f 53//9 56//9 60//9 57//9
f 61//10 63//10 64//10 62//10
f 33//1 35//1 61//1 62//1
f 39//3 37//3 64//3 63//3
f 37//4 33//4 62//4 64//4
f 65//1 66//1 68//1 67//1
f 67//2 68//2 72//2 71//2
f 71//3 72//3 70//3 69//3
f 69//4 70//4 66//4 65//4
f 67//2 71//2 95//2 93//2
f 68//1 66//1 73//1 74//1
f 75//2 74//2 78//2 79//2
f 66//4 70//4 76//4 73//4
f 72//2 68//2 74//2 75//2
f 70//3 72//3 75//3 76//3
f 80//3 79//3 83//3 84//3
f 76//3 75//3 79//3 80//3
f 74//1 73//1 77//1 78//1
f 73//4 76//4 80//4 77//4
f 81//5 84//5 88//5 85//5
f 78//1 77//1 81//1 82//1
f 77//4 80//4 84//4 81//4
f 79//2 78//2 82//2 83//2
f 87//6 86//6 90//6 91//6
f 83//7 82//7 86//7 87//7
f 84//3 83//3 87//3 88//3
f 82//1 81//1 85//1 86//1
f 91//8 90//8 89//8 92//8
f 88//3 87//3 91//3 92//3
f 86//1 85//1 89//1 90//1
f 85//9 88//9 92//9 89//9
f 93//10 95//10 96//10 94//10
f 65//1 67//1 93//1 94//1
f 71//3 69//3 96//3 95//3
f 69//4 65//4 94//4 96//4
f 97//1 98//1 100//1 99//1
f 99//11 100//11 104//11 103//11
f 103//3 104//3 102//3 101//3
f 101//12 102//12 98//12 97//12
f 99//11 103//11 119//11 117//11
f 100//1 98//1 105//1 106//1
f 107//11 106//11 110//11 111//11
f 98//12 102//12 108//12 105//12
f 104//11 100//11 106//11 107//11
f 102//3 104//3 107//3 108//3
f 112//3 111//3 115//3 116//3
f 108//3 107//3 111//3 112//3
f 106//1 105//1 109//1 110//1
f 105//12 108//12 112//12 109//12
f 110//1 109//1 113//1 114//1
f 109//12 112//12 116//12 113//12
f 111//11 110//11 114//11 115//11
f 113//12 116//12 144//12 141//12
f 117//11 119//11 123//11 121//11
f 97//1 99//1 117//1 118//1
f 103//3 101//3 120//3 119//3
f 101//12 97//12 118//12 120//12
f 123//3 124//3 128//3 127//3
f 119//3 120//3 124//3 123//3
f 118//1 117//1 121//1 122//1
f 120//12 118//12 122//12 124//12
f 128//12 126//12 130//12 132//12
f 122//1 121//1 125//1 126//1
f 124//12 122//12 126//12 128//12
f 121//11 123//11 127//11 125//11
f 131//3 132//3 136//3 135//3
f 125//11 127//11 131//11 129//11
f 127//3 128//3 132//3 131//3
f 126//1 125//1 129//1 130//1
f 135//3 136//3 140//3 139//3
f 130//1 129//1 133//1 134//1
f 132//12 130//12 134//12 136//12
f 129//11 131//11 135//11 133//11
f 137//13 139//13 140//13 138//13
f 134//1 133//1 137//1 138//1
f 136//12 134//12 138//12 140//12
f 133//11 135//11 139//11 137//11
f 144//3 143//3 147//3 148//3
f 115//11 114//11 142//11 143//11
f 116//3 115//3 143//3 144//3
f 114//1 113//1 141//1 142//1
f 146//1 145//1 149//1 150//1
f 142//1 141//1 145//1 146//1
f 141//12 144//12 148//12 145//12
f 143//11 142//11 146//11 147//11
f 151//14 150//14 149//14 152//14
f 145//12 148//12 152//12 149//12
f 147//11 146//11 150//11 151//11
f 148//3 147//3 151//3 152//3
