# Blender v2.78 (sub 0) OBJ File: 'puke_bird.blend'
# www.blender.org
o Plane
v -3.801768 -0.140917 0.004134
v 3.722845 -0.154537 0.004134
v -3.831364 1.147981 0.004134
v 3.722845 1.217038 0.004134
v -3.433774 -0.309423 0.004134
v -3.036184 -0.457404 0.004134
v -2.638594 -0.654712 0.004134
v -2.241004 -0.753366 0.004134
v -1.843414 -0.822423 0.004134
v -1.445825 -0.881616 0.004134
v -1.048235 -0.812558 0.004134
v -0.492799 -0.773096 0.004134
v -0.253055 -0.753366 0.004134
v 0.144535 -0.753366 0.004134
v 0.542125 -0.753366 0.004134
v 0.811465 -0.802693 0.004134
v 1.337305 -0.812558 0.004134
v 1.734895 -0.832289 0.004134
v 2.132485 -0.773096 0.004134
v 2.530075 -0.733635 0.004134
v 2.927665 -0.585654 0.004134
v 3.325255 -0.447539 0.004134
v 3.325254 1.167711 0.004134
v 2.927664 1.128250 0.004134
v 2.530075 1.098654 0.004134
v 2.231139 1.118385 0.004134
v 1.734895 1.000000 0.004134
v 1.337305 0.970404 0.004134
v 0.939715 0.980269 0.004134
v 0.621048 1.009865 0.004134
v 0.144535 1.009865 0.004134
v -0.470093 0.950673 0.004134
v -0.650645 0.950673 0.004134
v -1.048235 0.950673 0.004134
v -1.445825 0.970404 0.004134
v -1.843415 1.009865 0.004134
v -2.241005 1.078923 0.004134
v -2.470883 1.138115 0.004134
v -3.036184 1.078923 0.004134
v -3.433774 1.078923 0.004134
v -1.094587 -1.217038 0.004134
v -0.549016 -1.808961 0.004134
v 0.114939 -2.006269 0.004134
v 0.581587 -1.848423 0.004134
v 1.225811 -1.315692 0.004134
v 0.561856 -1.300894 0.004134
v 0.129737 -1.379817 0.004134
v -0.401036 -1.281163 0.004134
v -0.665443 -0.995067 0.004134
v 0.959446 -1.059192 0.004134
v 0.361224 1.267165 0.004134
v 0.103651 1.267165 0.004134
v -0.228578 1.235169 0.004134
v 0.293666 1.628888 0.004134
v 0.115691 1.628888 0.004134
v -0.113869 1.606780 0.004134
v 0.186658 1.881660 0.004134
v 0.098732 1.881660 0.004134
v -0.014681 1.870737 0.004134
v 0.119888 2.017045 0.004134
v 0.090412 2.017045 0.004134
v 0.062018 2.014311 0.004134
v 4.097729 0.279261 0.004134
v 4.097729 1.305827 0.004134
v 4.373960 0.507658 0.004134
v 4.373960 1.374884 0.004134
v 4.581133 0.715615 0.004134
v 4.581133 1.276426 0.004134
v 4.748844 0.965412 0.004134
v 4.748844 1.096363 0.004134
v -4.058268 0.037640 0.004134
v -4.087864 1.246634 0.004134
v -4.265441 0.227183 0.004134
v -4.295037 1.325557 0.004134
v -4.393691 0.377375 0.004134
v -4.423287 1.365019 0.004134
v -4.581133 0.649405 0.004134
v -4.610729 1.266365 0.004134
v -4.719248 0.930238 0.004134
v -4.748844 1.042621 0.004134
v -3.801768 -0.140917 -0.130261
v 3.722845 -0.154537 -0.130261
v -3.831364 1.147981 -0.130261
v 3.722845 1.217038 -0.130261
v -3.433774 -0.309423 -0.130261
v -3.036184 -0.457404 -0.130261
v -2.638594 -0.654712 -0.130261
v -2.241004 -0.753366 -0.130261
v -1.843414 -0.822423 -0.130261
v -1.445825 -0.881616 -0.130261
v -1.048235 -0.812558 -0.130261
v -0.492799 -0.773096 -0.130261
v -0.253055 -0.753366 -0.130261
v 0.144535 -0.753366 -0.130261
v 0.542125 -0.753366 -0.130261
v 0.811465 -0.802693 -0.130261
v 1.337305 -0.812558 -0.130261
v 1.734895 -0.832289 -0.130261
v 2.132485 -0.773096 -0.130261
v 2.530075 -0.733635 -0.130261
v 2.927665 -0.585654 -0.130261
v 3.325255 -0.447539 -0.130261
v 3.325254 1.167711 -0.130261
v 2.927664 1.128250 -0.130261
v 2.530075 1.098654 -0.130261
v 2.231139 1.118385 -0.130261
v 1.734895 1.000000 -0.130261
v 1.337305 0.970404 -0.130261
v 0.939715 0.980269 -0.130261
v 0.621048 1.009865 -0.130261
v 0.144535 1.009865 -0.130261
v -0.470093 0.950673 -0.130261
v -0.650645 0.950673 -0.130261
v -1.048235 0.950673 -0.130261
v -1.445825 0.970404 -0.130261
v -1.843415 1.009865 -0.130261
v -2.241005 1.078923 -0.130261
v -2.470883 1.138115 -0.130261
v -3.036184 1.078923 -0.130261
v -3.433774 1.078923 -0.130261
v -1.094587 -1.217038 -0.130261
v -0.549016 -1.808961 -0.130261
v 0.114939 -2.006269 -0.130261
v 0.581587 -1.848423 -0.130261
v 1.225811 -1.315692 -0.130261
v 0.561856 -1.300894 -0.130261
v 0.129737 -1.379817 -0.130261
v -0.401036 -1.281163 -0.130261
v -0.665443 -0.995067 -0.130261
v 0.959446 -1.059192 -0.130261
v 0.361224 1.267165 -0.130261
v 0.103651 1.267165 -0.130261
v -0.228578 1.235169 -0.130261
v 0.293666 1.628888 -0.130261
v 0.115691 1.628888 -0.130261
v -0.113869 1.606780 -0.130261
v 0.186658 1.881660 -0.130261
v 0.098732 1.881660 -0.130261
v -0.014681 1.870737 -0.130261
v 0.119888 2.017045 -0.130261
v 0.090412 2.017045 -0.130261
v 0.062018 2.014311 -0.130261
v 4.097729 0.279261 -0.130261
v 4.097729 1.305827 -0.130261
v 4.373960 0.507658 -0.130261
v 4.373960 1.374884 -0.130261
v 4.581133 0.715615 -0.130261
v 4.581133 1.276426 -0.130261
v 4.748844 0.965412 -0.130261
v 4.748844 1.096363 -0.130261
v -4.058268 0.037640 -0.130261
v -4.087864 1.246634 -0.130261
v -4.265441 0.227183 -0.130261
v -4.295037 1.325557 -0.130261
v -4.393691 0.377375 -0.130261
v -4.423287 1.365019 -0.130261
v -4.581133 0.649405 -0.130261
v -4.610729 1.266365 -0.130261
v -4.719248 0.930238 -0.130261
v -4.748844 1.042621 -0.130261
vn -0.0000 0.0000 -1.0000
vn 0.0000 -0.0000 1.0000
vn 0.3488 0.9372 0.0000
vn -0.3590 -0.9333 0.0000
vn 0.7353 0.6777 0.0000
vn 0.0000 -1.0000 0.0000
vn 0.4445 0.8958 0.0000
vn -0.9830 -0.1836 0.0000
vn 0.2849 0.9586 0.0000
vn 0.2408 0.9706 0.0000
vn 0.6750 0.7378 0.0000
vn -0.3204 0.9473 0.0000
vn -0.0496 -0.9988 0.0000
vn 0.1711 0.9852 0.0000
vn -0.3560 -0.9345 0.0000
vn -0.6373 0.7706 0.0000
vn -0.0988 -0.9951 0.0000
vn 0.1473 0.9891 0.0000
vn 0.9361 -0.3518 0.0000
vn -0.1711 -0.9852 0.0000
vn -0.1711 0.9852 0.0000
vn 0.7605 0.6494 0.0000
vn -0.2494 -0.9684 0.0000
vn -0.0709 0.9975 0.0000
vn -0.2941 -0.9558 0.0000
vn -0.9209 -0.3898 0.0000
vn 0.1041 -0.9946 0.0000
vn 0.4594 -0.8882 0.0000
vn 0.8234 0.5674 0.0000
vn 0.0959 -0.9954 0.0000
vn -0.8662 -0.4997 0.0000
vn 0.4657 -0.8849 0.0000
vn 0.8820 -0.4712 0.0000
vn 0.9670 0.2547 0.0000
vn 0.0188 0.9998 0.0000
vn 0.8973 0.4413 0.0000
vn -0.8969 -0.4423 0.0000
vn 0.0496 0.9988 0.0000
vn 0.8509 -0.5253 0.0000
vn 0.7894 -0.6139 0.0000
vn -0.1473 0.9891 0.0000
vn 0.2305 -0.9731 0.0000
vn -0.6936 -0.7203 0.0000
vn -0.0988 0.9951 0.0000
vn -0.7566 0.6539 0.0000
vn -0.3488 0.9372 0.0000
vn -0.3281 0.9446 0.0000
vn 0.2425 -0.9701 0.0000
vn 0.1231 -0.9924 0.0000
vn -0.6372 0.7707 0.0000
vn 0.0988 -0.9951 0.0000
vn 0.0742 -0.9972 0.0000
vn -0.4292 -0.9032 0.0000
vn -0.0659 -0.9978 0.0000
vn -0.7084 0.7058 0.0000
vn 0.7623 -0.6472 0.0000
vn 0.2320 -0.9727 0.0000
vn -1.0000 -0.0000 0.0000
vn -0.5933 0.8050 0.0000
vn -0.7318 -0.6816 0.0000
vn -0.7036 -0.7106 0.0000
vn -0.0248 -0.9997 0.0000
vn -0.8302 0.5574 0.0000
vn -0.0925 -0.9957 0.0000
vn 0.4163 0.9092 0.0000
vn 0.5713 0.8207 0.0000
vn 0.9555 -0.2949 0.0000
s off
f 22//1 23//1 4//1 2//1
f 1//1 3//1 40//1 5//1
f 5//1 40//1 39//1 6//1
f 6//1 39//1 38//1 7//1
f 7//1 38//1 37//1 8//1
f 8//1 37//1 36//1 9//1
f 9//1 36//1 35//1 10//1
f 10//1 35//1 34//1 11//1
f 11//1 34//1 33//1 12//1
f 12//1 33//1 32//1 13//1
f 13//1 32//1 31//1 14//1
f 14//1 31//1 30//1 15//1
f 15//1 30//1 29//1 16//1
f 16//1 29//1 28//1 17//1
f 17//1 28//1 27//1 18//1
f 18//1 27//1 26//1 19//1
f 19//1 26//1 25//1 20//1
f 20//1 25//1 24//1 21//1
f 21//1 24//1 23//1 22//1
f 46//1 44//1 43//1 47//1
f 48//1 42//1 41//1 49//1
f 50//1 45//1 44//1 46//1
f 47//1 43//1 42//1 48//1
f 14//1 47//1 48//1 13//1
f 16//1 50//1 46//1 15//1
f 13//1 48//1 49//1 12//1
f 15//1 46//1 47//1 14//1
f 32//1 53//1 52//1 31//1
f 31//1 52//1 51//1 30//1
f 53//1 56//1 55//1 52//1
f 52//1 55//1 54//1 51//1
f 56//1 59//1 58//1 55//1
f 55//1 58//1 57//1 54//1
f 59//1 62//1 61//1 58//1
f 58//1 61//1 60//1 57//1
f 4//1 64//1 63//1 2//1
f 64//1 66//1 65//1 63//1
f 66//1 68//1 67//1 65//1
f 68//1 70//1 69//1 67//1
f 1//1 71//1 72//1 3//1
f 71//1 73//1 74//1 72//1
f 73//1 75//1 76//1 74//1
f 75//1 77//1 78//1 76//1
f 77//1 79//1 80//1 78//1
f 102//2 82//2 84//2 103//2
f 81//2 85//2 120//2 83//2
f 85//2 86//2 119//2 120//2
f 86//2 87//2 118//2 119//2
f 87//2 88//2 117//2 118//2
f 88//2 89//2 116//2 117//2
f 89//2 90//2 115//2 116//2
f 90//2 91//2 114//2 115//2
f 91//2 92//2 113//2 114//2
f 92//2 93//2 112//2 113//2
f 93//2 94//2 111//2 112//2
f 94//2 95//2 110//2 111//2
f 95//2 96//2 109//2 110//2
f 96//2 97//2 108//2 109//2
f 97//2 98//2 107//2 108//2
f 98//2 99//2 106//2 107//2
f 99//2 100//2 105//2 106//2
f 100//2 101//2 104//2 105//2
f 101//2 102//2 103//2 104//2
f 126//2 127//2 123//2 124//2
f 128//2 129//2 121//2 122//2
f 130//2 126//2 124//2 125//2
f 127//2 128//2 122//2 123//2
f 94//2 93//2 128//2 127//2
f 96//2 95//2 126//2 130//2
f 93//2 92//2 129//2 128//2
f 95//2 94//2 127//2 126//2
f 112//2 111//2 132//2 133//2
f 111//2 110//2 131//2 132//2
f 133//2 132//2 135//2 136//2
f 132//2 131//2 134//2 135//2
f 136//2 135//2 138//2 139//2
f 135//2 134//2 137//2 138//2
f 139//2 138//2 141//2 142//2
f 138//2 137//2 140//2 141//2
f 84//2 82//2 143//2 144//2
f 144//2 143//2 145//2 146//2
f 146//2 145//2 147//2 148//2
f 148//2 147//2 149//2 150//2
f 81//2 83//2 152//2 151//2
f 151//2 152//2 154//2 153//2
f 153//2 154//2 156//2 155//2
f 155//2 156//2 158//2 157//2
f 157//2 158//2 160//2 159//2
f 5//3 6//3 86//3 85//3
f 3//4 72//4 152//4 83//4
f 41//5 42//5 122//5 121//5
f 32//6 33//6 113//6 112//6
f 6//7 7//7 87//7 86//7
f 51//8 54//8 134//8 131//8
f 42//9 43//9 123//9 122//9
f 33//6 34//6 114//6 113//6
f 7//10 8//10 88//10 87//10
f 73//11 71//11 151//11 153//11
f 43//12 44//12 124//12 123//12
f 34//13 35//13 115//13 114//13
f 8//14 9//14 89//14 88//14
f 72//15 74//15 154//15 152//15
f 44//16 45//16 125//16 124//16
f 35//17 36//17 116//17 115//17
f 9//18 10//18 90//18 89//18
f 59//19 56//19 136//19 139//19
f 36//20 37//20 117//20 116//20
f 10//21 11//21 91//21 90//21
f 75//22 73//22 153//22 155//22
f 37//23 38//23 118//23 117//23
f 11//24 12//24 92//24 91//24
f 74//25 76//25 156//25 154//25
f 54//26 57//26 137//26 134//26
f 38//27 39//27 119//27 118//27
f 60//6 61//6 141//6 140//6
f 49//28 41//28 121//28 129//28
f 39//6 40//6 120//6 119//6
f 77//29 75//29 155//29 157//29
f 61//30 62//30 142//30 141//30
f 50//31 16//31 96//31 130//31
f 76//32 78//32 158//32 156//32
f 62//33 59//33 139//33 142//33
f 80//34 79//34 159//34 160//34
f 16//35 17//35 97//35 96//35
f 79//36 77//36 157//36 159//36
f 57//37 60//37 140//37 137//37
f 17//38 18//38 98//38 97//38
f 78//39 80//39 160//39 158//39
f 12//40 49//40 129//40 92//40
f 18//41 19//41 99//41 98//41
f 64//42 4//42 84//42 144//42
f 45//43 50//43 130//43 125//43
f 19//44 20//44 100//44 99//44
f 2//45 63//45 143//45 82//45
f 20//46 21//46 101//46 100//46
f 21//47 22//47 102//47 101//47
f 66//48 64//48 144//48 146//48
f 4//49 23//49 103//49 84//49
f 63//50 65//50 145//50 143//50
f 23//51 24//51 104//51 103//51
f 24//52 25//52 105//52 104//52
f 68//53 66//53 146//53 148//53
f 25//54 26//54 106//54 105//54
f 65//55 67//55 147//55 145//55
f 53//56 32//56 112//56 133//56
f 26//57 27//57 107//57 106//57
f 69//58 70//58 150//58 149//58
f 27//52 28//52 108//52 107//52
f 22//59 2//59 82//59 102//59
f 70//60 68//60 148//60 150//60
f 30//61 51//61 131//61 110//61
f 28//62 29//62 109//62 108//62
f 67//63 69//63 149//63 147//63
f 29//64 30//64 110//64 109//64
f 40//20 3//20 83//20 120//20
f 1//65 5//65 85//65 81//65
f 71//66 1//66 81//66 151//66
f 56//67 53//67 133//67 136//67
