# Blender v2.78 (sub 0) OBJ File: 'rock_3.blend'
# www.blender.org
mtllib rock_3.mtl
o Rock_3_Icosphere
v -0.117921 -0.597549 0.414996
v -0.224809 -0.608800 -0.426571
v -0.236520 -0.403483 0.828191
v -0.627075 -0.456608 0.076772
v 0.555240 -0.405445 -0.600026
v 0.773504 -0.182415 0.559714
v -0.140772 -0.192980 -0.901245
v -0.224044 0.443357 0.716290
v 0.349928 0.500404 -0.762304
v 0.125085 0.747944 -0.020370
v 0.602127 0.584295 -0.421105
v -0.310149 0.687841 -0.341595
v -0.595101 0.377985 0.341605
v 0.742755 0.567348 0.053577
v 0.929521 0.119208 -0.293054
v -0.282125 0.429529 -0.758411
v 0.214454 0.357194 0.855369
v 0.720787 0.391726 0.509494
v 0.145766 0.157877 -0.950927
v -0.465083 -0.265694 -0.623399
v -0.364161 -0.031505 0.840290
v 0.370669 0.043415 0.898156
v 0.285358 -0.422241 0.741717
v 0.057367 -0.481871 -0.737504
v 0.514480 -0.529355 0.172837
v 0.867235 -0.284676 -0.055536
v -0.573448 0.394372 -0.303878
vn 0.5155 -0.7801 0.3545
vn 0.1071 -0.9942 -0.0003
vn 0.2197 -0.9650 -0.1431
vn 0.1996 0.9023 0.3822
vn -0.0978 0.8430 -0.5290
vn 0.2858 0.9569 -0.0505
vn -0.3270 0.9045 0.2738
vn 0.0519 0.9139 0.4025
vn 0.2219 0.9063 0.3598
vn 0.8248 0.5184 -0.2258
vn -0.0624 0.5097 -0.8581
vn -0.3317 0.1388 -0.9331
vn -0.2318 0.3092 0.9223
vn 0.5093 0.3602 0.7816
vn 0.6785 0.1256 0.7238
vn 0.9705 0.1080 0.2157
vn 0.9486 0.2773 0.1525
vn -0.9279 -0.0800 0.3641
vn -0.8370 -0.3020 0.4564
vn 0.4753 -0.3572 0.8041
vn 0.1420 -0.3385 0.9302
vn 0.2038 -0.9571 -0.2058
vn -0.6703 -0.6619 -0.3356
vn 0.0396 -0.9000 0.4341
vn 0.2848 -0.3385 -0.8968
vn 0.2010 -0.9448 0.2588
vn 0.6481 -0.7291 0.2199
vn -0.2975 -0.9534 0.0505
vn -0.0726 -0.0573 0.9957
vn -0.9983 0.0485 -0.0323
vn 0.6426 -0.0101 -0.7661
vn -0.3649 0.9087 0.2028
vn -0.7448 0.6672 -0.0080
vn 0.0842 0.9526 -0.2923
vn 0.0802 0.9526 -0.2935
vn -0.7052 0.5804 -0.4071
vn 0.6435 0.0374 -0.7645
vn 0.7162 0.3357 -0.6119
vn -0.6536 0.0251 -0.7564
vn -0.6923 0.3666 0.6216
vn -0.0875 0.0917 0.9919
vn -0.4088 -0.6494 -0.6412
vn -0.8401 0.1183 -0.5293
vn -0.9705 -0.0447 -0.2367
vn 0.9854 -0.0580 0.1598
vn 0.8404 -0.3652 -0.4005
vn -0.4253 -0.8600 0.2819
vn 0.5181 -0.8484 -0.1087
usemtl None
s off
f 25//1 6//1 23//1
f 25//2 1//2 2//2
f 2//3 5//3 25//3
f 18//4 10//4 17//4
f 16//5 12//5 9//5
f 10//6 14//6 11//6
f 13//7 10//7 12//7
f 17//8 10//8 8//8
f 14//9 10//9 18//9
f 11//10 14//10 15//10
f 19//11 16//11 9//11
f 19//12 7//12 16//12
f 17//13 8//13 21//13
f 17//14 22//14 18//14
f 22//15 6//15 18//15
f 18//16 6//16 15//16
f 15//17 14//17 18//17
f 13//18 4//18 21//18
f 4//19 3//19 21//19
f 22//20 23//20 6//20
f 22//21 3//21 23//21
f 5//22 2//22 24//22
f 20//23 2//23 4//23
f 3//24 1//24 23//24
f 24//25 7//25 19//25 5//25
f 1//26 25//26 23//26
f 25//27 26//27 6//27
f 1//28 4//28 2//28
f 3//29 22//29 21//29
f 13//30 27//30 4//30
f 5//31 19//31 15//31
f 8//32 10//32 13//32
f 27//33 13//33 12//33
f 12//34 10//34 9//34
f 11//35 9//35 10//35
f 12//36 16//36 27//36
f 15//37 19//37 9//37
f 9//38 11//38 15//38
f 7//39 20//39 16//39
f 21//40 8//40 13//40
f 21//41 22//41 17//41
f 24//42 2//42 20//42 7//42
f 20//43 27//43 16//43
f 4//44 27//44 20//44
f 15//45 6//45 26//45
f 26//46 5//46 15//46
f 3//47 4//47 1//47
f 5//48 26//48 25//48
