# Blender v2.78 (sub 0) OBJ File: 'rock_2.blend'
# www.blender.org
mtllib rock_2.mtl
o Rock_2_Icosphere
v 0.442490 -0.680943 -0.389681
v 1.002916 -0.371646 0.540802
v -0.094738 -0.366274 0.913722
v 0.656636 -0.357819 -1.155464
v -0.312109 -0.015071 -1.101610
v 0.601051 0.457252 0.718006
v -0.400359 0.484367 0.647349
v 0.314049 0.521800 -1.422909
v 0.913461 0.573227 -0.554281
v 0.630353 0.595434 -1.122086
v -0.347816 0.546978 -0.737794
v 0.180969 0.736663 0.294102
v 1.161484 0.195502 -0.319327
v 0.954089 0.277236 -1.141788
v 0.190838 0.303336 -1.494083
v -0.868826 -0.034370 0.154359
v -0.021382 0.388317 0.904793
v 0.458710 0.114126 -1.550150
v 0.004710 -0.089495 -1.337369
v -0.620966 -0.027397 0.696003
v -0.465656 -0.136078 0.829709
v 0.650306 -0.308402 0.950429
v 1.023534 -0.355530 -0.847330
v 0.067845 -0.580542 -0.829108
v -0.779551 -0.480341 0.176449
v -0.558641 -0.502543 0.542860
v 0.085572 -0.540390 0.812433
v 0.756140 -0.559568 0.597804
v 0.462782 0.265311 0.959506
v 0.870116 -0.555600 -0.268986
v -0.644823 0.515900 -0.015083
v 0.623650 0.670687 0.099258
v -0.824603 -0.370430 -0.171191
v -0.625742 0.293764 0.588170
v -0.626302 0.303532 -0.602413
v 1.071009 0.298208 0.222693
v 0.059482 0.771114 -0.355112
v -0.020615 -0.728261 0.371159
v -0.405020 -0.716103 -0.001167
v -0.569679 -0.509128 -0.533044
v 1.178776 -0.166792 0.244194
v 1.146228 -0.112092 -0.814417
v 0.267579 -0.004688 1.066871
v 0.824473 -0.088942 0.919128
v -0.659646 -0.078890 -0.669007
v -0.805739 0.107323 -0.338427
v 0.772742 0.180723 -1.526720
v -0.233675 0.675004 0.408861
v -0.291584 0.727830 -0.177318
vn 0.0180 -0.9985 -0.0512
vn -0.7068 -0.3433 -0.6185
vn 0.6514 -0.4276 0.6268
vn 0.2123 0.9754 -0.0589
vn -0.5700 0.7970 -0.2000
vn 0.6071 0.7798 0.1529
vn 0.9352 0.2872 -0.2073
vn 0.8692 0.4630 -0.1732
vn 0.3934 0.7077 -0.5869
vn -0.9273 0.3741 -0.0112
vn -0.8898 0.4183 0.1822
vn -0.4788 0.3113 0.8209
vn 0.5441 0.4768 0.6904
vn -0.8281 -0.3189 -0.4611
vn -0.8970 -0.1591 0.4125
vn -0.0094 0.3753 0.9268
vn -0.0164 -0.3759 0.9265
vn 0.9662 0.2294 0.1178
vn 0.1580 -0.9248 -0.3460
vn -0.6346 -0.7567 -0.1570
vn -0.4449 -0.8692 0.2156
vn -0.2303 -0.8742 0.4276
vn -0.0446 -0.9815 -0.1862
vn 0.6153 -0.7845 0.0773
vn -0.9790 -0.1927 0.0659
vn 0.5374 -0.5541 -0.6357
vn 0.5733 -0.5762 0.5825
vn 0.8794 -0.0742 0.4702
vn -0.2869 -0.1153 0.9510
vn -0.9917 -0.0059 -0.1286
vn -0.5987 -0.4502 -0.6624
vn 0.7788 -0.3196 -0.5397
vn -0.7041 0.6604 -0.2610
vn -0.2508 0.9277 -0.2764
vn 0.1573 0.9873 0.0230
vn -0.1033 0.9910 0.0850
vn -0.0085 0.9733 -0.2293
vn -0.2532 0.9278 -0.2740
vn -0.4676 0.8751 0.1251
vn -0.6618 0.6965 0.2774
vn -0.5582 0.7931 0.2438
vn 0.0381 0.8625 0.5046
vn -0.1616 0.8228 0.5448
vn 0.1149 0.7446 0.6576
vn 0.6412 0.6749 -0.3652
vn 0.2768 0.9052 0.3224
vn 0.5648 0.7736 0.2875
vn 0.8264 0.5622 0.0314
vn 0.8952 0.0720 -0.4398
vn -0.6867 0.3638 -0.6294
vn -0.5988 0.5326 -0.5981
vn -0.6017 -0.0333 -0.7980
vn -0.7802 0.1727 -0.6013
vn -0.4850 0.2841 0.8271
vn -0.8441 0.4952 -0.2057
vn 0.0100 0.3011 -0.9535
vn -0.3278 0.1440 0.9337
vn 0.8736 0.2225 0.4329
vn 0.7081 0.4803 0.5176
vn -0.3379 -0.2062 -0.9183
vn -0.0860 -0.6938 -0.7150
vn 0.1829 -0.5844 -0.7906
vn -0.8014 -0.2761 0.5306
vn -0.3665 -0.6915 -0.6225
vn -0.8673 0.1578 -0.4722
vn -0.9286 -0.0894 -0.3601
vn -0.9028 0.1247 0.4115
vn 0.7804 -0.6253 0.0043
vn -0.4624 -0.4708 0.7514
vn 0.2771 0.1753 0.9447
vn -0.0033 -0.5054 0.8629
vn 0.2477 -0.0586 0.9671
vn 0.1715 -0.7774 0.6052
vn 0.9995 -0.0001 -0.0307
vn 0.2236 -0.9735 0.0486
vn 0.8946 -0.4441 -0.0504
vn 0.2665 -0.9125 -0.3105
vn -0.2375 -0.9279 -0.2876
vn -0.5734 -0.8078 -0.1368
vn -0.2958 -0.9147 0.2755
vn -0.3111 -0.6976 0.6454
vn 0.3326 -0.9150 -0.2283
vn 0.0924 -0.9240 0.3711
usemtl None
s off
f 1//1 38//1 39//1
f 40//2 45//2 5//2
f 44//3 22//3 2//3
f 9//4 10//4 37//4 32//4
f 31//5 49//5 11//5
f 32//6 36//6 9//6
f 13//7 42//7 14//7
f 14//8 9//8 13//8
f 47//9 8//9 10//9
f 16//10 31//10 46//10
f 31//11 16//11 34//11
f 17//12 7//12 34//12
f 29//13 44//13 6//13
f 45//14 40//14 33//14
f 20//15 16//15 25//15
f 43//16 29//16 17//16
f 43//17 3//17 22//17
f 36//18 41//18 13//18
f 1//19 24//19 4//19
f 33//20 40//20 25//20
f 25//21 39//21 26//21
f 26//22 38//22 27//22
f 1//23 39//23 24//23
f 28//24 30//24 2//24
f 16//25 33//25 25//25
f 4//26 47//26 23//26
f 2//27 22//27 28//27
f 2//28 41//28 44//28
f 3//29 43//29 21//29
f 16//30 46//30 33//30
f 5//31 19//31 40//31
f 23//32 47//32 42//32
f 31//33 11//33 35//33
f 8//34 11//34 37//34
f 37//35 12//35 32//35
f 49//36 48//36 12//36 37//36
f 8//37 37//37 10//37
f 11//38 49//38 37//38
f 31//39 48//39 49//39
f 31//40 34//40 7//40
f 31//41 7//41 48//41
f 12//42 48//42 17//42 6//42
f 17//43 48//43 7//43
f 17//44 29//44 6//44
f 14//45 47//45 10//45 9//45
f 6//46 32//46 12//46
f 32//47 6//47 36//47
f 9//48 36//48 13//48
f 42//49 47//49 14//49
f 11//50 15//50 5//50 35//50
f 15//51 11//51 8//51
f 15//52 19//52 5//52
f 5//53 45//53 35//53
f 20//54 21//54 17//54 34//54
f 46//55 31//55 35//55
f 8//56 47//56 18//56 15//56
f 21//57 43//57 17//57
f 44//58 41//58 36//58
f 36//59 6//59 44//59
f 18//60 19//60 15//60
f 19//61 18//61 4//61 24//61
f 18//62 47//62 4//62
f 26//63 21//63 20//63 25//63
f 24//64 40//64 19//64
f 45//65 46//65 35//65
f 45//66 33//66 46//66
f 34//67 16//67 20//67
f 30//68 23//68 41//68 2//68
f 21//69 26//69 3//69
f 43//70 44//70 29//70
f 22//71 3//71 27//71
f 22//72 44//72 43//72
f 22//73 27//73 28//73
f 41//74 42//74 13//74
f 1//75 30//75 28//75 38//75
f 23//76 42//76 41//76
f 1//77 4//77 23//77
f 40//78 24//78 39//78
f 25//79 40//79 39//79
f 39//80 38//80 26//80
f 26//81 27//81 3//81
f 1//82 23//82 30//82
f 38//83 28//83 27//83
